HIERARCHY
ROOT Hips
{
  OFFSET -187.679 86.5976 -156.378
  CHANNELS 6 Xposition Yposition Zposition Zrotation Xrotation Yrotation
  JOINT LeftUpLeg
  {
    OFFSET 8.64259 1.95398 -2.38835
    CHANNELS 3 Zrotation Xrotation Yrotation
    JOINT LeftLeg
    {
      OFFSET 43.7702 0 0
      CHANNELS 3 Zrotation Xrotation Yrotation
      JOINT LeftFoot
      {
        OFFSET 40.6238 0 0
        CHANNELS 3 Zrotation Xrotation Yrotation
        JOINT LeftToeBase
        {
          OFFSET 12.7242 0 0
          CHANNELS 3 Zrotation Xrotation Yrotation
          End Site
          {
            OFFSET 0 0 0
          }
        }
      }
    }
  }
  JOINT RightUpLeg
  {
    OFFSET -8.2249 1.95398 -2.59336
    CHANNELS 3 Zrotation Xrotation Yrotation
    JOINT RightLeg
    {
      OFFSET 43.5653 0 0
      CHANNELS 3 Zrotation Xrotation Yrotation
      JOINT RightFoot
      {
        OFFSET 40.6238 0 0
        CHANNELS 3 Zrotation Xrotation Yrotation
        JOINT RightToeBase
        {
          OFFSET 12.7242 0 0
          CHANNELS 3 Zrotation Xrotation Yrotation
          End Site
          {
            OFFSET 0 0 0
          }
        }
      }
    }
  }
  JOINT Spine
  {
    OFFSET 0.165834 0.87714 6.61349
    CHANNELS 3 Zrotation Xrotation Yrotation
    JOINT Spine1
    {
      OFFSET 7.38963 1.71661e-005 0
      CHANNELS 3 Zrotation Xrotation Yrotation
      JOINT Spine2
      {
        OFFSET 11.9445 1.14441e-005 0
        CHANNELS 3 Zrotation Xrotation Yrotation
        JOINT Spine3
        {
          OFFSET 14.7254 4.19617e-005 0
          CHANNELS 3 Zrotation Xrotation Yrotation
          JOINT Spine4
          {
            OFFSET 10.9679 0 0
            CHANNELS 3 Zrotation Xrotation Yrotation
            JOINT RightShoulder
            {
              OFFSET 2.46616 -1.6653 3.69651
              CHANNELS 3 Zrotation Xrotation Yrotation
              JOINT RightArm
              {
                OFFSET 13.0012 0 0
                CHANNELS 3 Zrotation Xrotation Yrotation
                JOINT RightForeArm
                {
                  OFFSET 28.7848 1.52588e-005 0
                  CHANNELS 3 Zrotation Xrotation Yrotation
                  JOINT RightHand
                  {
                    OFFSET 26.5688 1.52588e-005 0
                    CHANNELS 3 Zrotation Xrotation Yrotation
                    End Site
                    {
                      OFFSET 0 0 0
                    }
                  }
                }
              }
            }
            JOINT LeftShoulder
            {
              OFFSET 2.38034 -1.29275 -3.7523
              CHANNELS 3 Zrotation Xrotation Yrotation
              JOINT LeftArm
              {
                OFFSET 16.3182 6.10352e-005 0
                CHANNELS 3 Zrotation Xrotation Yrotation
                JOINT LeftForeArm
                {
                  OFFSET 27.0901 0 0
                  CHANNELS 3 Zrotation Xrotation Yrotation
                  JOINT LeftHand
                  {
                    OFFSET 24.5451 1.52588e-005 0
                    CHANNELS 3 Zrotation Xrotation Yrotation
                    End Site
                    {
                      OFFSET 0 0 0
                    }
                  }
                }
              }
            }
            JOINT Neck
            {
              OFFSET 5.0226 -0.0266342 0
              CHANNELS 3 Zrotation Xrotation Yrotation
              JOINT Head
              {
                OFFSET 6.69363 2.86102e-005 0
                CHANNELS 3 Zrotation Xrotation Yrotation
                End Site
                {
                  OFFSET 0 0 0
                }
              }
            }
          }
        }
      }
    }
  }
}
MOTION
Frames:	9
Frame Time:	0.0416667
-23.4564 91.4438 3.11522 101.768 30.1015 74.6413 -175.976 24.3291 77.0765 -60.2318 24.0764 3.75349 78.0659 9.36011 1.60193 10.2471 -9.24881 3.13286 172.593 14.8472 81.5724 -94.3579 2.5216 -5.02107 63.1321 -2.28465 -2.97546 23.5258 -3.27712 7.23525 -0.155558 7.95859 -88.8336 10.948 0.230222 2.3002 -0.72499 0.331198 2.28784 -23.2441 -0.471549 2.26311 -3.23149 -0.471555 2.2631 93.142 -39.6475 -97.8563 39.7233 -10.3864 -1.98208 -14.5929 -1.15857 -3.33963 -9.09087 0.303076 -9.39021 -88.6837 -38.5241 78.391 -1.76025 14.1252 -9.46711 11.2406 6.48373 -4.9681 2.25047 0.37026 7.06347 3.03081 8.05328 0.811665 3.26341 7.90787 2.71314 
-18.4493 95.8858 0.0240625 103.884 29.0598 77.9035 -175.877 13.9756 82.0394 -52.6301 25.1021 5.18353 75.6348 7.82019 0.481692 11.9804 -7.96207 2.23382 173.379 19.8432 87.1681 -91.7134 15.3051 -3.51592 65.9792 -2.88687 -2.72221 21.5724 -3.59402 6.86337 -0.345635 8.12414 -89.4469 10.6265 -0.433773 1.13866 -1.04487 -0.38324 1.15664 -23.5776 -0.755915 0.955676 -3.56494 -0.755931 0.955672 93.7628 -36.5418 -97.4504 39.2099 -10.4156 -1.61381 -14.487 0.654162 -2.72604 -8.12183 0.349287 -10.6346 -86.8157 -31.9274 80.0903 -4.04853 13.9577 -12.581 10.5863 3.64106 -2.13965 3.51895 0.446196 6.14136 -2.26379 8.44641 3.08291 4.34428 8.17178 3.14317 
-13.4671 101.504 -3.4673 106.858 28.6626 80.3555 -175.488 2.60789 85.7034 -41.4854 27.7373 7.41897 64.5881 2.26399 -1.24791 15.7309 -4.93164 -0.576857 174.015 19.7635 90.5231 -82.1909 15.1979 -2.19221 66.4556 -2.34605 -2.94478 21.3792 -3.38681 6.1764 -0.426674 8.34614 -90.1081 10.18 -0.899418 -0.137664 -1.49061 -0.904616 -0.0979552 -24.0278 -0.816454 -0.40163 -4.01514 -0.81647 -0.401642 93.7794 -34.0517 -98.0042 38.5313 -12.0742 0.428132 -13.9745 -1.25495 -4.20704 -7.00397 0.337568 -11.419 -85.6914 -29.7708 81.7097 -6.23466 11.2975 -14.1983 11.9038 5.94348 -4.81546 4.16512 0.427015 4.78668 -12.0592 7.8486 7.8263 8.02065 7.80964 2.79774 
-8.92014 106.152 -6.60059 107.564 30.0645 81.7632 -175.158 0.287201 88.6394 -37.7678 34.6075 9.59403 54.1084 -2.54228 -3.45096 12.9489 -6.25001 -0.284548 174.813 19.6027 91.4246 -70.7386 12.2792 -1.17169 67.7601 -2.72127 -0.917851 22.266 -3.09491 5.88894 -0.406331 8.38859 -90.4261 10.0916 -1.00369 -0.761269 -1.5792 -1.03623 -0.716361 -24.1143 -0.728519 -1.02772 -4.10164 -0.728535 -1.02772 92.8496 -34.5219 -99.638 37.3762 -14.4158 3.94376 -13.1925 -2.6034 -4.55615 -6.89547 0.350977 -11.9163 -85.0135 -27.3657 82.487 -8.53658 11.7352 -16.6289 12.1087 6.64819 -6.51814 4.99053 0.471101 4.45914 -19.1445 6.29951 7.00788 11.4497 6.98435 3.83325 
-4.92378 108.343 -9.16259 106.559 33.5778 81.1817 -175.677 4.33744 88.5356 -41.8043 37.3976 9.36633 51.8347 -3.57805 -4.38791 14.5814 -6.95932 2.5523 174.975 20.5849 89.8651 -59.8409 12.2743 -0.506605 70.6362 -3.52301 0.159978 24.2597 -2.22575 4.60002 -0.44901 8.35771 -90.3403 10.1557 -1.04986 -0.587322 -1.51495 -1.0747 -0.540549 -24.0514 -0.824805 -0.875701 -4.0387 -0.824803 -0.875693 92.5683 -35.6828 -99.8578 38.4453 -15.0193 6.77347 -12.8375 -2.5649 -3.65796 -5.71947 0.301019 -12.2447 -85.0129 -27.5305 82.527 -7.67449 13.6701 -20.1859 11.4629 6.17994 -5.81279 4.02251 0.417341 4.83654 -20.1094 4.74031 4.32164 12.7042 5.43705 3.78125 
-0.859581 109.051 -11.3844 107.24 36.5687 80.1529 -174.817 6.981 89.9407 -39.3971 35.9273 7.28923 51.0526 -4.00096 -5.76485 21.4872 -6.5815 8.9774 175.508 17.8422 88.9493 -46.2626 11.9372 -0.391532 73.2387 -4.18571 1.7345 26.3315 -2.15287 5.69807 -0.399922 8.4806 -90.2296 9.91116 -0.9013 -0.382459 -1.75952 -0.91729 -0.342408 -24.2961 -0.744708 -0.635652 -4.28342 -0.744706 -0.635669 92.2485 -37.4978 -99.9653 39.7856 -13.1651 9.57033 -13.2264 -2.19064 -4.33293 -5.40707 0.273453 -12.0741 -85.2916 -27.3256 81.9189 -9.42845 14.4421 -22.9444 10.9246 7.51628 -3.32008 3.00285 0.327023 4.60945 -19.6693 3.48201 0.529395 12.6609 4.17077 4.83114 
3.16996 108.086 -13.5716 106.588 39.2577 80.5308 -174.78 10.6786 90.9865 -33.3085 28.7692 5.69455 53.2467 -2.95699 -5.38168 15.4676 -7.01252 3.5018 175.412 15.1043 88.3919 -31.9352 6.23567 0.195669 70.8473 -3.81426 0.899816 28.3652 -0.924963 2.97329 -0.421534 8.4878 -90.1614 9.89736 -0.913408 -0.246269 -1.77329 -0.923342 -0.205834 -24.3103 -0.797162 -0.509417 -4.29767 -0.797148 -0.509415 91.8031 -38.8504 -100.407 41.1032 -12.0843 11.1884 -13.5163 -2.63529 -5.37508 -5.65383 0.28417 -11.9665 -85.3638 -28.6471 82.087 -10.5117 16.7449 -21.7613 10.5123 5.97478 -4.33735 3.82092 0.420601 5.19418 -18.3586 2.74605 -1.74035 11.9308 3.31043 4.56448 
7.12321 104.708 -15.6594 103.547 42.3609 82.8035 -176.322 17.4393 91.5318 -30.7323 24.5817 6.2523 60.3073 0.0923752 -3.41693 8.58669 -10.7349 4.3147 174.306 16.5321 88.308 -25.3068 3.75507 1.97594 67.9066 -3.32491 0.664791 29.1528 -0.552228 2.15843 -0.498092 8.39265 -90.1793 10.0876 -1.07417 -0.265888 -1.58291 -1.08482 -0.218362 -24.1208 -0.944598 -0.576458 -4.10812 -0.944589 -0.576457 91.2953 -40.244 -100.932 41.3992 -12.0407 11.182 -13.5158 -1.71324 -6.11946 -5.94247 0.29813 -11.8833 -85.7736 -31.1699 81.8792 -12.3256 17.9951 -19.7115 10.5345 5.3819 -5.5478 3.65008 0.477711 6.42628 -13.7779 2.25535 -4.14427 9.61391 2.88097 4.98824 
11.0768 98.3181 -17.63 100.895 44.2863 85.1005 -178.691 27.5544 92.4305 -42.3424 40.7809 10.5835 58.5046 -0.368228 -0.838063 6.65613 -10.0203 1.49664 172.205 23.8621 88.957 -36.7512 5.37058 4.13309 67.6591 -3.16422 1.84556 30.8685 -0.0929837 1.64894 -0.462735 8.41047 -90.19 10.0518 -1.0086 -0.293251 -1.6188 -1.02053 -0.248585 -24.1562 -0.873833 -0.582838 -4.14354 -0.873827 -0.582842 89.3656 -43.6722 -103.244 39.1099 -13.101 10.7386 -13.1752 -0.254665 -6.48557 -6.25983 0.325491 -12.0432 -86.9741 -34.8634 80.5059 -12.6483 19.4425 -17.6004 9.99925 4.40629 -5.1919 2.75691 0.430655 7.33819 -4.8268 1.59632 -6.33461 5.57536 2.51914 4.19199 
